<svg id="Layer_1" data-name="Layer 1" xmlns="http://www.w3.org/2000/svg" viewBox="0 0 371 84.02"><defs><style>.cls-1{fill:#3094c5;}.cls-2{fill:#575756;}.cls-3{fill:#55b9a0;}</style></defs><title>crowdfunder_logo</title><path class="cls-1" d="M42,49.62a8.21,8.21,0,1,1-8.21-8.21A8.21,8.21,0,0,1,42,49.62h0Z" transform="translate(-6 -7.55)"/><path class="cls-2" d="M96,40.62a11.42,11.42,0,0,0-4.09-3,11,11,0,0,0-4-.76,13.31,13.31,0,0,0-5.39,1.05,12.32,12.32,0,0,0-4.15,2.93,13.26,13.26,0,0,0-2.68,4.36,14.93,14.93,0,0,0-.95,5.36,16.46,16.46,0,0,0,.95,5.69,13.37,13.37,0,0,0,2.68,4.5,12.42,12.42,0,0,0,4.15,3A13,13,0,0,0,88,64.79a9.91,9.91,0,0,0,4.52-1.11,12.35,12.35,0,0,0,4.09-3.55l5.64,4a15.36,15.36,0,0,1-6.34,5.2,19.76,19.76,0,0,1-8,1.63,22.43,22.43,0,0,1-8.15-1.44A18.28,18.28,0,0,1,69.17,59.15,21.26,21.26,0,0,1,67.65,51a22.21,22.21,0,0,1,1.52-8.37,18.77,18.77,0,0,1,4.2-6.42,18.44,18.44,0,0,1,6.39-4.09,22.43,22.43,0,0,1,8.15-1.44A18.69,18.69,0,0,1,95.15,32a16.86,16.86,0,0,1,6.2,4.69L96,40.62h0Z" transform="translate(-6 -7.55)"/><path class="cls-2" d="M105,43.54h6.5v4.12h0.11a8.15,8.15,0,0,1,3.09-3.52,8.52,8.52,0,0,1,4.61-1.25,6.24,6.24,0,0,1,1.16.11q0.57,0.11,1.17.27v6.29c-0.54-.14-1.08-0.26-1.6-0.35a9.12,9.12,0,0,0-1.54-.13,7,7,0,0,0-3.66.84,6.69,6.69,0,0,0-2.11,1.92,6.47,6.47,0,0,0-1,2.17,8.29,8.29,0,0,0-.24,1.63V69.55H105v-26h0Z" transform="translate(-6 -7.55)"/><path class="cls-2" d="M129.27,56.55a8.45,8.45,0,0,0,.52,2.93A7.29,7.29,0,0,0,131.3,62a7.69,7.69,0,0,0,11.22,0A7.34,7.34,0,0,0,144,59.47a8.56,8.56,0,0,0,0-5.85,7.35,7.35,0,0,0-1.52-2.49,7.68,7.68,0,0,0-11.22,0,7.29,7.29,0,0,0-1.52,2.49,8.43,8.43,0,0,0-.52,2.92h0Zm-6.5,0a13.72,13.72,0,0,1,1.11-5.61,13.14,13.14,0,0,1,3-4.31,13.3,13.3,0,0,1,4.5-2.76,16.16,16.16,0,0,1,11.06,0,13.32,13.32,0,0,1,4.5,2.76,13.17,13.17,0,0,1,3,4.31,14.72,14.72,0,0,1,0,11.22,13.17,13.17,0,0,1-3,4.31,13.31,13.31,0,0,1-4.5,2.76,16.13,16.13,0,0,1-11.06,0,13.29,13.29,0,0,1-4.5-2.76,13.14,13.14,0,0,1-3-4.31,13.74,13.74,0,0,1-1.11-5.61h0Z" transform="translate(-6 -7.55)"/><polygon class="cls-2" points="144.79 36 151.84 36 157.47 54.21 157.58 54.21 162.84 36 169.88 36 175.52 54.21 175.62 54.21 181.04 36 187.6 36 178.77 62.01 172.32 62.01 166.14 44.23 166.03 44.23 160.56 62.01 153.84 62.01 144.79 36 144.79 36"/><path class="cls-2" d="M199.84,56.55a8.45,8.45,0,0,0,.52,2.93A7.29,7.29,0,0,0,201.87,62a7.69,7.69,0,0,0,11.22,0,7.34,7.34,0,0,0,1.52-2.49,8.57,8.57,0,0,0,0-5.85,7.35,7.35,0,0,0-1.52-2.49,7.68,7.68,0,0,0-11.22,0,7.29,7.29,0,0,0-1.52,2.49,8.43,8.43,0,0,0-.52,2.92h0Zm15.39,9.11h-0.11a8.36,8.36,0,0,1-3.79,3.47,12.34,12.34,0,0,1-5.15,1.08,13.06,13.06,0,0,1-5.39-1.05,12.08,12.08,0,0,1-4-2.9,12.36,12.36,0,0,1-2.55-4.33,16.19,16.19,0,0,1-.87-5.36,15.34,15.34,0,0,1,.92-5.36,13.31,13.31,0,0,1,2.57-4.33,11.84,11.84,0,0,1,4-2.9,12.17,12.17,0,0,1,5.09-1.06,12.55,12.55,0,0,1,3.25.38,11.11,11.11,0,0,1,2.49,1,10.07,10.07,0,0,1,1.84,1.27,9.3,9.3,0,0,1,1.25,1.33h0.16V28.59h6.5v41h-6.18v-3.9h0Z" transform="translate(-6 -7.55)"/><path class="cls-2" d="M229.37,49.07H224V43.54h5.36V39.86a29.09,29.09,0,0,1,.38-4.9,9.59,9.59,0,0,1,1.44-3.77,6.78,6.78,0,0,1,3-2.41,14.7,14.7,0,0,1,5.37-.84,16.81,16.81,0,0,1,3.68.38l-0.43,5.53c-0.47-.11-0.92-0.2-1.35-0.27a8.33,8.33,0,0,0-1.36-.11,4.64,4.64,0,0,0-2.17.43,3.34,3.34,0,0,0-1.27,1.17,4.27,4.27,0,0,0-.6,1.71,15.05,15.05,0,0,0-.13,2.06v4.71h6v5.53h-6V69.55h-6.5V49.07h0Z" transform="translate(-6 -7.55)"/><path class="cls-2" d="M268.77,69.55h-6.18V65.38h-0.11a9.14,9.14,0,0,1-2.82,3.39,8.35,8.35,0,0,1-5.15,1.43,10.47,10.47,0,0,1-4.42-.84,7.94,7.94,0,0,1-3-2.27,8.84,8.84,0,0,1-1.62-3.28A14.89,14.89,0,0,1,245,60V43.54h6.5V56.71c0,0.72,0,1.53.11,2.41a8.55,8.55,0,0,0,.57,2.49,4.71,4.71,0,0,0,1.41,2,4.1,4.1,0,0,0,2.68.78,6.16,6.16,0,0,0,2.74-.54,5.2,5.2,0,0,0,1.84-1.46,5.82,5.82,0,0,0,1.05-2.11,9.45,9.45,0,0,0,.33-2.49V43.54h6.5v26h0Z" transform="translate(-6 -7.55)"/><path class="cls-2" d="M272.89,43.54h6.18v4.17h0.11A9.1,9.1,0,0,1,282,44.33a8.35,8.35,0,0,1,5.15-1.44,10.21,10.21,0,0,1,4.42.87,8.37,8.37,0,0,1,3,2.28,8.62,8.62,0,0,1,1.63,3.25,15,15,0,0,1,.49,3.84V69.55h-6.5V56.39c0-.72,0-1.53-0.11-2.41a8.71,8.71,0,0,0-.57-2.49,4.66,4.66,0,0,0-1.44-2,4.13,4.13,0,0,0-2.66-.79,6.18,6.18,0,0,0-2.74.54,5.23,5.23,0,0,0-1.84,1.46,5.82,5.82,0,0,0-1.06,2.11,9.47,9.47,0,0,0-.32,2.49v14.2h-6.51v-26h0Z" transform="translate(-6 -7.55)"/><path class="cls-2" d="M305.94,56.55a8.45,8.45,0,0,0,.52,2.93A7.39,7.39,0,0,0,308,62a7.63,7.63,0,0,0,2.41,1.73,8.17,8.17,0,0,0,6.39,0A7.63,7.63,0,0,0,319.19,62a7.31,7.31,0,0,0,1.52-2.49,8.56,8.56,0,0,0,0-5.85,7.31,7.31,0,0,0-1.52-2.49,7.69,7.69,0,0,0-11.22,0,7.39,7.39,0,0,0-1.52,2.49,8.43,8.43,0,0,0-.52,2.92h0Zm15.39,9.11h-0.11a8.38,8.38,0,0,1-3.79,3.47,12.35,12.35,0,0,1-5.15,1.08,13.07,13.07,0,0,1-5.39-1.05,12.07,12.07,0,0,1-4-2.9,12.32,12.32,0,0,1-2.55-4.33,16.13,16.13,0,0,1-.87-5.36,15.38,15.38,0,0,1,.92-5.36,13.31,13.31,0,0,1,2.58-4.33,11.82,11.82,0,0,1,4-2.9A12.16,12.16,0,0,1,312,42.89a12.5,12.5,0,0,1,3.25.38,11.09,11.09,0,0,1,2.49,1,10,10,0,0,1,1.84,1.27,9.56,9.56,0,0,1,1.25,1.33H321V28.59h6.51v41h-6.18v-3.9h0Z" transform="translate(-6 -7.55)"/><path class="cls-2" d="M350.16,53.95a6.13,6.13,0,0,0-1.79-4.52,6.71,6.71,0,0,0-4.82-1.65,6.32,6.32,0,0,0-4.63,1.68,7.49,7.49,0,0,0-2.09,4.5h13.33Zm-13.33,4.88a6.59,6.59,0,0,0,2.28,4.55A7.11,7.11,0,0,0,343.82,65a7.74,7.74,0,0,0,4.09-1,11.27,11.27,0,0,0,2.9-2.52L355.47,65a13.21,13.21,0,0,1-5.09,4,15,15,0,0,1-5.91,1.19,15.6,15.6,0,0,1-5.52-1,13.28,13.28,0,0,1-4.5-2.76,13.08,13.08,0,0,1-3-4.31,14.7,14.7,0,0,1,0-11.22,13.09,13.09,0,0,1,3-4.31,13.28,13.28,0,0,1,4.5-2.76,15.6,15.6,0,0,1,5.52-1,12.66,12.66,0,0,1,5,.95,10.63,10.63,0,0,1,3.85,2.74A12.68,12.68,0,0,1,355.77,51a18.84,18.84,0,0,1,.89,6v1.79H336.83Z" transform="translate(-6 -7.55)"/><path class="cls-2" d="M360.36,43.54h6.51v4.12H367a8.17,8.17,0,0,1,3.09-3.52,8.52,8.52,0,0,1,4.6-1.25,6.28,6.28,0,0,1,1.17.11c0.38,0.07.76,0.16,1.17,0.27v6.29c-0.54-.14-1.08-0.26-1.6-0.35a9.12,9.12,0,0,0-1.55-.13,7,7,0,0,0-3.66.84,6.66,6.66,0,0,0-2.11,1.92,6.4,6.4,0,0,0-1,2.17,8.42,8.42,0,0,0-.24,1.63V69.55h-6.51v-26h0Z" transform="translate(-6 -7.55)"/><path class="cls-1" d="M36.49,57.4a31,31,0,0,0,15.83-6.19q1-.78,2-1.65h2.27L61,54A38.67,38.67,0,0,1,38.84,65L53.18,88.27,46,91.4,33.5,72.22,21,91.57l-7.14-3.13L28.15,65A38.7,38.7,0,0,1,6,54l4.41-4.41h2.27q1,0.87,2,1.65A31,31,0,0,0,30.5,57.4a37.35,37.35,0,0,0,6,0h0Z" transform="translate(-6 -7.55)"/><path class="cls-3" d="M30.5,41.72a31,31,0,0,0-15.83,6.19q-1,.78-2,1.65H10.41L6,45.15a38.68,38.68,0,0,1,22.15-11L13.82,10.85,21,7.72,33.5,26.9,46,7.55l7.14,3.13L38.84,34.15A38.7,38.7,0,0,1,61,45.15l-4.41,4.41H54.31q-1-.87-2-1.65a31,31,0,0,0-15.83-6.19,37.36,37.36,0,0,0-6,0h0Z" transform="translate(-6 -7.55)"/></svg>